<svg width="423" height="420" viewBox="0 0 423 420" fill="none" xmlns="http://www.w3.org/2000/svg">
<path d="M90.543 227.21L91.9105 226.152L90.3105 225.495L2.08787 189.28L47.9561 77.3061L136.215 113.432L137.816 114.088L137.585 112.373L124.821 17.845L244.706 1.59833L257.562 96.1139L257.795 97.8284L259.164 96.7704L334.624 38.4572L408.64 134.185L333.238 192.573L331.87 193.632L333.47 194.289L421.693 230.504L375.825 342.478L287.567 306.352L285.965 305.696L286.197 307.411L298.96 401.939L179.075 418.186L166.219 323.67L165.986 321.956L164.617 323.014L89.1567 381.327L15.1409 285.599L90.543 227.21Z" stroke="#333333" stroke-width="2"/>
</svg>
