<svg width="247" height="256" viewBox="0 0 247 256" fill="none" xmlns="http://www.w3.org/2000/svg">
<path d="M148.344 85.5636L148.228 87.3484L149.85 86.5949L220.34 53.851L167.169 112.421L166.031 113.675L167.656 114.152L241.12 135.72L164.742 145.91L163.095 146.13L163.987 147.531L205.903 213.387L142.216 170.408L140.771 169.432L140.569 171.164L131.343 250.327L110.082 174.442L109.594 172.702L108.312 173.975L52.3897 229.503L83.4078 156.087L84.0865 154.481L82.3479 154.617L5.74871 160.594L74.6918 123.979L76.1592 123.2L74.8349 122.196L13.4184 75.6612L87.963 93.1325L89.6121 93.519L89.2403 91.8666L71.8739 14.6919L117.044 77.942L118.084 79.3976L118.863 77.7875L153.524 6.1499L148.344 85.5636Z" stroke="#333333" stroke-width="2.122"/>
</svg>
