<svg width="102" height="102" viewBox="0 0 102 102" fill="none" xmlns="http://www.w3.org/2000/svg">
<path d="M77.5241 12.0275C77.0442 11.8119 76.7056 11.7216 76.5084 11.7566C76.3048 11.7933 76.0676 12.0435 75.7971 12.5074L72.6094 17.972C72.3552 18.4078 72.2555 18.7303 72.3105 18.9392C72.3632 19.1521 72.6081 19.4076 73.0453 19.7055L72.9123 19.9334L69.4393 17.9075L69.5722 17.6795C70.0381 17.9191 70.3852 18.0224 70.6135 17.9895C70.8377 17.9541 71.0688 17.7325 71.3068 17.3246L74.7498 11.4222C74.8291 11.2863 74.8701 11.1654 74.8728 11.0598C74.8691 10.9558 74.7952 10.8484 74.6509 10.7374C74.5659 10.6717 74.4746 10.6078 74.3769 10.5455C74.2753 10.4808 74.0845 10.3668 73.8046 10.2035C72.7129 9.56672 71.9226 9.22631 71.4337 9.18232C70.9449 9.13833 70.3047 9.38127 69.5132 9.91113L69.2013 9.72918L71.0433 7.94965L77.6536 11.8056L77.5241 12.0275Z" fill="#333333"/>
<path d="M67.0171 9.82432C66.7534 10.7071 66.2513 11.3688 65.5109 11.8096C64.7647 12.2534 63.9502 12.3435 63.0674 12.0798C62.1891 11.8174 61.5478 11.3118 61.1434 10.5629C60.739 9.81394 60.6799 8.96041 60.9661 8.00226C61.2298 7.11952 61.7385 6.43559 62.4922 5.95048C63.2459 5.46536 64.0664 5.35532 64.9535 5.62034C65.8052 5.87475 66.4326 6.40281 66.8358 7.20451C67.2389 8.00621 67.2993 8.87948 67.0171 9.82432ZM63.373 11.7362C63.7234 11.8409 64.0617 11.8164 64.3879 11.6625C64.9521 11.3914 65.3819 10.7612 65.6774 9.77201C65.9133 8.98243 65.9558 8.19307 65.805 7.40393C65.6498 6.61347 65.255 6.1235 64.6207 5.93401C64.1238 5.7856 63.6741 5.90009 63.2715 6.27748C62.8644 6.65355 62.5502 7.21197 62.3289 7.95277C62.0997 8.72017 62.0545 9.49424 62.1933 10.275C62.3321 11.0557 62.7254 11.5428 63.373 11.7362Z" fill="#333333"/>
<path d="M58.1827 4.51439C57.7552 4.5098 57.4669 4.55604 57.3179 4.6531C57.1684 4.75477 57.0756 4.98991 57.0396 5.35852L56.7348 8.47556C56.6902 8.93171 56.7022 9.26082 56.7708 9.4629C56.8343 9.66914 56.979 9.7833 57.2048 9.80538C57.2509 9.80988 57.3137 9.80905 57.3934 9.80289C57.468 9.80088 57.5477 9.79472 57.6325 9.7844L57.6102 10.0125C57.3385 10.0789 57.0597 10.147 56.7738 10.2168C56.4879 10.2865 56.2899 10.3369 56.1799 10.368C55.9409 10.433 55.694 10.5089 55.439 10.5956C55.4067 10.5924 55.3894 10.5791 55.387 10.5556C55.3801 10.5317 55.3802 10.4829 55.3874 10.4091L55.4983 9.27566C55.1633 9.6569 54.8486 9.94942 54.5542 10.1532C54.2552 10.3566 53.9583 10.4438 53.6634 10.415C53.4284 10.392 53.2442 10.3019 53.1107 10.1446C52.9768 9.99198 52.9202 9.80968 52.9409 9.59773C52.9594 9.40882 53.0325 9.25549 53.1603 9.13774C53.2835 9.01954 53.4304 8.96878 53.6008 8.98545C53.7759 9.00257 53.9454 9.10055 54.1094 9.27939C54.2687 9.45778 54.399 9.55193 54.5004 9.56184C54.6617 9.57761 54.8726 9.46567 55.1333 9.22602C55.3935 8.99097 55.5371 8.73522 55.5642 8.45877L55.869 5.34173C55.9078 4.94548 55.8426 4.66001 55.6737 4.48533C55.5042 4.31526 55.2048 4.21388 54.7754 4.18119L54.7977 3.95311L58.205 4.28632L58.1827 4.51439Z" fill="#333333"/>
<path d="M47.6518 10.5116C47.0016 10.5695 46.412 10.3944 45.8829 9.98601C45.3543 9.58228 45.0531 8.9677 44.9796 8.14228L49.3718 7.75081C49.2304 6.6851 48.9188 5.92737 48.4372 5.47762C47.9555 5.02787 47.415 4.8297 46.8155 4.88313C46.3313 4.92629 45.9345 5.08947 45.6251 5.37268C45.3157 5.6559 45.0411 6.04291 44.8013 6.53372L44.5518 6.47229C44.6887 5.86981 44.9955 5.29634 45.4722 4.75187C45.9443 4.20782 46.5561 3.9023 47.3078 3.83531C48.1747 3.75804 48.8748 4.02564 49.4081 4.63811C49.9368 5.251 50.2392 5.98398 50.3152 6.83707C50.3979 7.76394 50.1948 8.58845 49.7061 9.31061C49.2173 10.0328 48.5326 10.4331 47.6518 10.5116ZM48.008 9.9709C48.5337 9.92405 48.9141 9.65542 49.1493 9.16502C49.2746 8.90286 49.3528 8.57984 49.3836 8.19596L46.4647 8.45612C46.5565 8.91273 46.6747 9.24846 46.8194 9.46332C47.0815 9.84897 47.4777 10.0182 48.008 9.9709Z" fill="#333333"/>
<path d="M40.325 4.98865C39.9963 5.14159 39.7902 5.27984 39.7068 5.40341C39.5781 5.59251 39.5821 5.87651 39.7187 6.25542L40.9361 9.63293C41.0523 9.95522 41.172 10.1507 41.2952 10.2195C41.414 10.2899 41.5715 10.2897 41.7675 10.2191C41.8589 10.1861 41.927 10.1566 41.9718 10.1306C42.0122 10.1062 42.059 10.0722 42.1121 10.0284L42.1945 10.2571L41.7807 10.5834C41.6312 10.7012 41.3894 10.9041 41.0551 11.1919C40.7209 11.4797 40.5429 11.6275 40.5211 11.6353C40.4993 11.6432 40.4823 11.637 40.4701 11.6168C40.4579 11.5966 40.4408 11.556 40.4189 11.495L40.101 10.6131C39.8111 11.1605 39.536 11.5647 39.2758 11.8258C39.0172 12.0913 38.7224 12.2837 38.3914 12.403C37.9428 12.5647 37.5307 12.541 37.1552 12.3319C36.9561 12.2166 36.7599 12.0339 36.5664 11.7838C36.3618 12.2266 36.168 12.5696 35.985 12.8127C35.6686 13.2319 35.2948 13.5192 34.8636 13.6746C34.1624 13.9274 33.5914 13.8109 33.1506 13.3251C32.8994 13.0515 32.6482 12.5663 32.397 11.8694L31.4197 9.15826C31.3083 8.84904 31.1646 8.66214 30.9888 8.59757C30.8102 8.53893 30.536 8.55655 30.1663 8.65044L30.1051 8.48058L33.0515 7.41855L33.1174 7.60147C32.751 7.77289 32.5303 7.93859 32.4551 8.09857C32.3755 8.26012 32.4009 8.52164 32.5312 8.88313L33.5461 11.6988C33.6984 12.1213 33.8564 12.4162 34.02 12.5836C34.3099 12.8826 34.69 12.9474 35.1604 12.7778C35.4435 12.6758 35.6907 12.4809 35.9019 12.1931C36.0238 12.0261 36.1592 11.7805 36.308 11.4562L35.1023 8.11135C34.9752 7.75857 34.8176 7.5127 34.6298 7.37373C34.4375 7.23634 34.1387 7.23333 33.7333 7.36469L33.6721 7.19484L36.6707 6.11396L36.7319 6.28382C36.337 6.48522 36.1096 6.68037 36.0498 6.86927C35.9899 7.05816 36.0644 7.44223 36.2732 8.02149L36.9325 9.8507C37.1743 10.5214 37.3842 10.9674 37.5624 11.1886C37.86 11.5636 38.2418 11.6671 38.7078 11.4991C38.9735 11.4034 39.2081 11.2351 39.4117 10.9944C39.6168 10.7581 39.775 10.487 39.8862 10.1812L38.5981 6.60766C38.4788 6.27666 38.3398 6.06841 38.181 5.98293C38.0179 5.89901 37.7417 5.92474 37.3525 6.0601L37.2913 5.89025L40.2638 4.81879L40.325 4.98865Z" fill="#333333"/>
<path d="M26.605 21.7319C26.736 21.8817 26.7965 22.0564 26.7865 22.2558C26.7765 22.4553 26.6948 22.6221 26.5415 22.7562C26.3916 22.8873 26.2172 22.9445 26.0182 22.9279C25.8187 22.9179 25.6519 22.8362 25.5178 22.6829C25.3867 22.5331 25.328 22.3569 25.3415 22.1544C25.3546 21.9584 25.436 21.7949 25.5859 21.6638C25.7392 21.5297 25.9138 21.4692 26.1098 21.4823C26.3088 21.4988 26.4739 21.582 26.605 21.7319ZM21.4992 14.5453C21.1568 14.9063 20.9765 15.1748 20.9582 15.3507C20.9429 15.5302 21.1136 15.8237 21.4702 16.2314L23.6512 18.7245C23.8494 18.951 24.0022 19.0941 24.1098 19.1538C24.287 19.2509 24.4593 19.2263 24.6265 19.08C24.6648 19.0465 24.7001 19.0095 24.7324 18.969C24.7611 18.9315 24.8413 18.8122 24.9728 18.611L25.1145 18.773L24.9538 19.0428C24.5178 19.7749 24.2237 20.2966 24.0717 20.608C24.0107 20.7351 23.9663 20.8109 23.9384 20.8353C23.9101 20.817 23.8838 20.7939 23.8594 20.766L20.5765 17.0133C20.229 16.616 19.964 16.408 19.7815 16.3893C19.5956 16.3736 19.3214 16.4996 18.959 16.7674L18.831 16.6211L21.3712 14.399L21.4992 14.5453Z" fill="#333333"/>
<path d="M15.7366 21.7736C15.4147 21.6739 15.1189 21.6682 14.8493 21.7567C14.5804 21.8517 14.3459 22.0266 14.1458 22.2815C13.837 22.6747 13.7687 23.1627 13.941 23.7453C14.1141 24.3345 14.5502 24.9036 15.2492 25.4526C15.9192 25.9787 16.5342 26.2262 17.0943 26.1951C17.6515 26.1677 18.0802 25.9628 18.3805 25.5805C18.5921 25.311 18.7013 24.9995 18.7082 24.6459C18.7188 24.2951 18.644 24.0568 18.4838 23.931L15.7366 21.7736ZM13.8399 17.4764C13.593 17.8358 13.4957 18.1096 13.548 18.2978C13.5975 18.4897 13.7551 18.69 14.0209 18.8988L19.264 23.0161C19.5407 23.2335 19.7445 23.3375 19.8753 23.3284C20.0068 23.3258 20.1455 23.2316 20.2914 23.0459C20.3228 23.0059 20.351 22.9662 20.376 22.9269C20.3981 22.8913 20.4294 22.8364 20.4699 22.7623L20.6502 22.9038L20.412 23.5557C20.4014 23.5767 20.2396 24.0413 19.9268 24.9494C19.9125 24.9676 19.8934 24.9732 19.8695 24.9662C19.8463 24.9656 19.8238 24.9568 19.802 24.9397L19.0647 24.3606C19.1163 24.7897 19.1288 25.141 19.1024 25.4145C19.0489 25.9023 18.8864 26.3192 18.6148 26.6651C18.2202 27.1675 17.6665 27.4303 16.9538 27.4534C16.2419 27.483 15.5145 27.2061 14.7718 26.6228C14.0436 26.0509 13.5543 25.3135 13.3039 24.4105C13.0506 23.5112 13.1828 22.732 13.7003 22.0729C13.8604 21.869 14.0246 21.7125 14.1928 21.6032C14.4523 21.4302 14.7611 21.3255 15.1194 21.289L13.3335 19.8865C12.9658 19.5977 12.6928 19.4805 12.5147 19.5349C12.3366 19.5893 12.0743 19.8071 11.7278 20.1884L11.5367 20.0383L13.6597 17.3348L13.8399 17.4764Z" fill="#333333"/>
<path d="M11.685 29.2161L11.5833 29.4214C11.0631 29.2825 10.6364 29.2312 10.3032 29.2676C9.69472 29.3278 9.25173 29.6379 8.97424 30.1979C8.82007 30.509 8.78384 30.7959 8.86553 31.0585C8.94931 31.3274 9.1281 31.5296 9.40188 31.6653C9.5761 31.7516 9.7698 31.783 9.98297 31.7595C10.1961 31.736 10.4442 31.6315 10.7272 31.4463L11.4707 30.9467C11.9974 30.5721 12.4592 30.3334 12.8564 30.2305C13.2535 30.1276 13.6409 30.1697 14.0184 30.3568C14.483 30.587 14.7824 30.942 14.9166 31.4219C15.0508 31.9017 14.9936 32.3926 14.7449 32.8946C14.6359 33.1144 14.4752 33.3345 14.2628 33.5547C14.0483 33.7791 13.9328 33.9078 13.9163 33.941C13.8793 34.0157 13.863 34.0748 13.8673 34.1182C13.8716 34.1617 13.8904 34.2072 13.9237 34.2547L13.8497 34.404L12.0921 33.5873L12.1876 33.3944C12.6311 33.5109 12.9998 33.554 13.2937 33.524C13.836 33.4724 14.2273 33.2039 14.4678 32.7185C14.6117 32.4282 14.6356 32.1558 14.5394 31.9015C14.4433 31.6472 14.2749 31.4604 14.0343 31.3412C13.6527 31.1521 13.1707 31.2698 12.5884 31.6942L11.7396 32.2967C10.8206 32.9418 10.0416 33.1061 9.40282 32.7895C8.91332 32.547 8.60449 32.164 8.47631 31.6407C8.34608 31.1215 8.42793 30.5653 8.72187 29.9721C8.8452 29.7232 9.02646 29.4617 9.26564 29.1875C9.50482 28.9133 9.6388 28.7472 9.66758 28.6892C9.69224 28.6394 9.69516 28.5866 9.67633 28.5307C9.66164 28.477 9.63455 28.4274 9.59504 28.382L9.67521 28.2202L11.685 29.2161Z" fill="#333333"/>
<path d="M11.8906 39.6816L7.5893 38.5631C7.28462 38.4839 7.02936 38.4629 6.82352 38.5003C6.43989 38.5775 6.19041 38.8379 6.07506 39.2815C5.99584 39.5862 6.01917 39.9104 6.14507 40.254C6.21397 40.4489 6.32486 40.6571 6.47773 40.8787L10.1608 41.8364C10.5058 41.9261 10.7495 41.9177 10.892 41.8113C11.0345 41.7048 11.1694 41.4529 11.2966 41.0554L11.5184 41.1131L10.9539 43.2839L6.22244 42.0536C5.91776 41.9744 5.69319 41.9734 5.54874 42.0506C5.4076 42.1335 5.29772 42.3537 5.21912 42.7112L5.03094 42.6622C5.02781 42.3983 5.02347 42.2035 5.01792 42.0776C5.01685 41.953 5.00704 41.7424 4.9885 41.4457C4.97847 41.3188 4.94854 41.0383 4.89873 40.6044C4.90456 40.582 4.91925 40.5715 4.94282 40.5728C4.96191 40.573 4.98489 40.5766 5.01178 40.5836L6.09384 40.8649C5.81013 40.4659 5.61354 40.1182 5.50404 39.8218C5.33424 39.3711 5.30468 38.9329 5.41536 38.5072C5.51672 38.1174 5.75116 37.7861 6.11866 37.5134C6.48285 37.235 6.98755 37.1796 7.63275 37.3474L11.1209 38.2544C11.4793 38.3476 11.7388 38.3338 11.8994 38.2129C12.0012 38.1341 12.1098 37.9375 12.225 37.6231L12.4132 37.672L11.8906 39.6816Z" fill="#333333"/>
<path d="M3.93122 46.355C3.96691 46.7158 4.02928 46.956 4.11833 47.0755C4.25427 47.2595 4.52362 47.3496 4.92637 47.346L8.51646 47.3133C8.85903 47.3102 9.08313 47.2618 9.18877 47.1683C9.29444 47.0794 9.34633 46.9307 9.34444 46.7224C9.34355 46.6252 9.33825 46.5512 9.32853 46.5003C9.31885 46.4541 9.30214 46.3987 9.2784 46.3341L9.52144 46.3319L9.69265 46.8304C9.75447 47.0104 9.86596 47.3056 10.0271 47.7162C10.1883 48.1268 10.2689 48.3437 10.2691 48.3668C10.2694 48.39 10.2579 48.404 10.2348 48.4088C10.2117 48.4136 10.1677 48.4164 10.1029 48.4169L9.16548 48.4255C9.5863 48.88 9.87692 49.2732 10.0374 49.6051C10.2024 49.9369 10.2865 50.2788 10.2897 50.6306C10.2941 51.1074 10.1355 51.4885 9.81403 51.7738C9.63946 51.9236 9.40216 52.0484 9.10214 52.1484C9.45246 52.4878 9.7121 52.7841 9.88108 53.0372C10.1721 53.4743 10.3197 53.9221 10.3239 54.3804C10.3307 55.1257 10.032 55.6261 9.42778 55.8816C9.08652 56.0283 8.54553 56.1049 7.80483 56.1117L4.92304 56.1379C4.59436 56.1409 4.37049 56.2147 4.25143 56.3593C4.13704 56.5085 4.06306 56.7731 4.02948 57.153L3.84893 57.1547L3.82043 54.0229L4.01487 54.0211C4.05557 54.4235 4.13898 54.6867 4.26511 54.8105C4.39128 54.939 4.64649 55.0015 5.03073 54.998L8.02362 54.9708C8.47267 54.9667 8.80323 54.9151 9.0153 54.8159C9.39335 54.6412 9.5801 54.3038 9.57555 53.8038C9.57281 53.5029 9.47056 53.2052 9.2688 52.9108C9.15151 52.7405 8.96442 52.5316 8.70753 52.2839L5.15216 52.3163C4.77718 52.3197 4.49307 52.3871 4.29981 52.5185C4.1066 52.6545 4.00499 52.9355 3.99497 53.3616L3.81443 53.3632L3.78542 50.1759L3.96597 50.1742C4.02553 50.6135 4.13455 50.8926 4.29304 51.0116C4.45154 51.1305 4.83864 51.1871 5.45435 51.1815L7.39868 51.1639C8.11161 51.1574 8.6019 51.1066 8.86956 51.0116C9.32185 50.8547 9.54574 50.5286 9.54124 50.0332C9.53867 49.7508 9.45744 49.4738 9.29755 49.2021C9.1423 48.9303 8.93873 48.6914 8.68685 48.4854L4.88844 48.52C4.53661 48.5232 4.29412 48.5855 4.16096 48.7071C4.02784 48.8333 3.96085 49.1025 3.95997 49.5145L3.77942 49.5162L3.75067 46.3566L3.93122 46.355Z" fill="#333333"/>
<path d="M13.7423 67.6153C13.8782 67.9247 13.9352 68.2385 13.9132 68.5566C13.8986 68.7653 13.8474 68.9825 13.7595 69.2082L15.7813 68.3199C16.0398 68.2063 16.2048 68.0984 16.2762 67.9962C16.3495 67.8983 16.3386 67.7413 16.2437 67.5251C16.2213 67.4742 16.1996 67.4307 16.1786 67.3944C16.1576 67.3581 16.1119 67.277 16.0415 67.1512L16.2513 67.0591L16.6139 67.5217C16.7485 67.6901 16.8853 67.8576 17.0242 68.0241C17.1631 68.1906 17.2896 68.3347 17.4038 68.4565C17.4548 68.515 17.5444 68.6096 17.6727 68.7404L17.6767 68.7841L17.0036 69.0647C16.7601 69.1666 16.5082 69.2723 16.2478 69.3816C15.9916 69.4891 15.7385 69.5978 15.4884 69.7077L10.2886 71.9772C10.0131 72.0983 9.8351 72.2169 9.7547 72.3331C9.67429 72.4494 9.69834 72.6537 9.82684 72.9462C9.84732 72.9928 9.86781 73.0394 9.88829 73.086C9.91302 73.1308 9.93986 73.1746 9.96882 73.2175L9.75902 73.3097C9.73937 73.288 9.49839 73.0273 9.03608 72.5275L8.22241 71.6942L8.26007 71.6245L9.04207 71.2809C8.67924 71.1572 8.40454 71.0326 8.21799 70.9073C7.89131 70.6817 7.63858 70.3654 7.4598 69.9585C7.14321 69.238 7.16383 68.5311 7.52167 67.8378C7.88561 67.147 8.43421 66.6405 9.16747 66.3183C10.0872 65.9142 10.9929 65.8348 11.8845 66.0802C12.7822 66.328 13.4015 66.8397 13.7423 67.6153ZM8.40343 70.2417C8.54869 70.5723 8.7635 70.7965 9.04786 70.9143C9.33222 71.0321 9.56129 71.0528 9.73507 70.9764L12.4625 69.7781C13.0135 69.536 13.3362 69.2172 13.4305 68.8218C13.5308 68.4288 13.5196 68.0924 13.3967 67.8127C13.162 67.2786 12.7422 66.9676 12.1371 66.8794C11.5363 66.7895 10.8904 66.8962 10.1995 67.1998C9.51713 67.4996 8.97781 67.9237 8.58157 68.472C8.18719 69.0245 8.12781 69.6144 8.40343 70.2417Z" fill="#333333"/>
<path d="M13.6953 74.9164C14.4383 74.3718 15.2381 74.1472 16.0945 74.2428C16.9573 74.3393 17.6611 74.7591 18.2057 75.5022C18.7476 76.2415 18.9537 77.0318 18.8241 77.873C18.6944 78.7142 18.2264 79.4304 17.4198 80.0215C16.6767 80.5661 15.8583 80.8044 14.9646 80.7362C14.0709 80.668 13.3503 80.2605 12.803 79.5137C12.2775 78.7968 12.096 77.9971 12.2585 77.1146C12.421 76.2321 12.8999 75.4993 13.6953 74.9164ZM17.7547 75.5917C17.5385 75.2967 17.2539 75.1121 16.901 75.0378C16.2876 74.9134 15.5645 75.1564 14.7318 75.7667C14.0671 76.2539 13.5568 76.8576 13.2007 77.5777C12.8473 78.3017 12.8663 78.9306 13.2577 79.4646C13.5642 79.8828 13.9919 80.063 14.5407 80.0051C15.0922 79.951 15.6798 79.6954 16.3034 79.2384C16.9494 78.7649 17.4526 78.175 17.8132 77.4688C18.1738 76.7625 18.1543 76.1368 17.7547 75.5917Z" fill="#333333"/>
<path d="M17.6811 84.6493C18.024 84.9129 18.2955 85.0496 18.4956 85.0593C18.6989 85.0656 18.9318 84.9284 19.1943 84.6478L23.8285 79.6924C24.0372 79.4693 24.1625 79.298 24.2043 79.1787C24.2695 78.9735 24.199 78.7744 23.9927 78.5815C23.9454 78.5372 23.8882 78.4933 23.8213 78.4497C23.7577 78.4092 23.6741 78.3596 23.5706 78.3008L23.7272 78.1334C24.2975 78.4386 24.9987 78.7902 25.8309 79.1881C25.8546 79.2103 25.8586 79.233 25.843 79.2565C25.8308 79.2831 25.7931 79.3302 25.7298 79.3979L20.0426 85.4791C19.7675 85.7733 19.6395 86.0118 19.6587 86.1946C19.6811 86.374 19.8402 86.6241 20.1359 86.9451L20.0031 87.0871L17.5482 84.7913L17.6811 84.6493Z" fill="#333333"/>
<path d="M24.8679 86.9865C25.3616 86.2087 26.0246 85.7083 26.857 85.4854C27.6957 85.2611 28.504 85.3958 29.2819 85.8895C30.0558 86.3807 30.5356 87.0417 30.7212 87.8723C30.9068 88.703 30.7317 89.5404 30.1958 90.3847C29.7021 91.1625 29.0267 91.6824 28.1695 91.9444C27.3123 92.2064 26.4928 92.0893 25.7111 91.5931C24.9606 91.1168 24.5003 90.4381 24.3303 89.557C24.1602 88.6759 24.3394 87.8191 24.8679 86.9865ZM28.8944 86.1371C28.5856 85.9411 28.2534 85.8728 27.8977 85.9321C27.281 86.0397 26.6961 86.5294 26.1429 87.401C25.7013 88.0968 25.4458 88.8448 25.3764 89.6453C25.311 90.4481 25.5577 91.027 26.1167 91.3817C26.5544 91.6596 27.0184 91.6717 27.5084 91.4179C28.0024 91.1667 28.4565 90.7147 28.8708 90.0619C29.3 89.3857 29.5539 88.6531 29.6325 87.864C29.7111 87.0749 29.4651 86.4993 28.8944 86.1371Z" fill="#333333"/>
<path d="M31.9269 94.498C32.337 94.6187 32.627 94.6525 32.7968 94.5996C32.9683 94.5424 33.1215 94.3413 33.2564 93.9964L34.397 91.0796C34.5639 90.6527 34.6418 90.3327 34.6307 90.1196C34.6256 89.9038 34.5174 89.7547 34.3061 89.6721C34.263 89.6552 34.2023 89.6389 34.1239 89.6232C34.0515 89.6048 33.9732 89.5891 33.8888 89.576L33.9723 89.3626C34.2518 89.3724 34.5386 89.3827 34.8327 89.3933C35.1268 89.4039 35.331 89.4092 35.4453 89.4092C35.693 89.4115 35.9513 89.4057 36.2202 89.3916C36.2504 89.4034 36.2634 89.4209 36.2593 89.4441C36.2595 89.4691 36.2461 89.516 36.2192 89.585L35.8044 90.6457C36.2304 90.3698 36.6127 90.1739 36.9514 90.0578C37.2944 89.9433 37.6039 89.9401 37.8798 90.048C38.0997 90.134 38.2525 90.2708 38.3382 90.4584C38.4256 90.6417 38.4306 90.8325 38.353 91.0308C38.2839 91.2076 38.1718 91.3353 38.0168 91.4139C37.8661 91.4941 37.711 91.5031 37.5515 91.4407C37.3876 91.3766 37.2512 91.2362 37.142 91.0196C37.0372 90.8046 36.9373 90.6786 36.8425 90.6415C36.6916 90.5825 36.4581 90.6329 36.1421 90.7926C35.8278 90.9481 35.6201 91.1552 35.5189 91.4139L34.3783 94.3307C34.2333 94.7015 34.2184 94.9939 34.3336 95.208C34.4504 95.4177 34.711 95.5966 35.1153 95.7448L35.0319 95.9583L31.8434 94.7115L31.9269 94.498Z" fill="#333333"/>
<path d="M46.7351 96.4512L46.964 96.463C47.0432 96.9955 47.1657 97.4074 47.3315 97.6987C47.6285 98.2332 48.0891 98.5165 48.7133 98.5486C49.06 98.5665 49.3377 98.4857 49.5462 98.3064C49.7597 98.1227 49.8742 97.8783 49.8899 97.5731C49.8999 97.3789 49.8518 97.1887 49.7455 97.0024C49.6391 96.8162 49.4448 96.63 49.1623 96.444L48.4084 95.9601C47.8554 95.6257 47.4528 95.2967 47.2006 94.9732C46.9484 94.6496 46.8331 94.2774 46.8547 93.8567C46.8814 93.3389 47.0882 92.923 47.4752 92.6092C47.8622 92.2953 48.3354 92.1528 48.8949 92.1816C49.1399 92.1942 49.4057 92.2542 49.6922 92.3617C49.9834 92.4694 50.1474 92.5242 50.1844 92.5261C50.2676 92.5304 50.3283 92.5219 50.3665 92.5007C50.4047 92.4795 50.439 92.4442 50.4693 92.3947L50.6358 92.4033L50.5847 94.3407L50.3697 94.3296C50.3004 93.8764 50.1935 93.5209 50.0491 93.2632C49.7863 92.7861 49.3844 92.5336 48.8434 92.5058C48.5198 92.4891 48.2604 92.5754 48.0652 92.7647C47.87 92.954 47.7656 93.1827 47.7518 93.4509C47.7299 93.8762 48.0294 94.2718 48.6503 94.6375L49.5404 95.177C50.4976 95.764 50.9579 96.4135 50.9212 97.1255C50.8931 97.6711 50.6644 98.1067 50.2351 98.4323C49.8104 98.7581 49.2675 98.904 48.6063 98.87C48.3289 98.8557 48.0169 98.7933 47.6703 98.6827C47.3237 98.5722 47.118 98.5152 47.0532 98.5119C46.9978 98.509 46.9481 98.5273 46.9044 98.5668C46.8609 98.6017 46.8261 98.6462 46.8002 98.7005L46.6199 98.6912L46.7351 96.4512Z" fill="#333333"/>
<path d="M55.0781 89.6715C55.0539 89.4739 55.102 89.2954 55.2223 89.1361C55.3427 88.9767 55.504 88.8846 55.7062 88.8598C55.9037 88.8356 56.0802 88.8862 56.2355 89.0117C56.3949 89.1321 56.487 89.2934 56.5118 89.4956C56.5361 89.6932 56.4857 89.8719 56.3607 90.0318C56.2398 90.1866 56.0805 90.2761 55.8829 90.3004C55.6808 90.3252 55.5023 90.2771 55.3475 90.1562C55.1922 90.0306 55.1024 89.8691 55.0781 89.6715ZM55.2642 98.4852C55.7502 98.3789 56.0503 98.2581 56.1643 98.1229C56.2777 97.983 56.3014 97.6443 56.2354 97.1066L55.832 93.8188C55.7953 93.5202 55.7493 93.3159 55.6938 93.2061C55.6018 93.0262 55.4455 92.9497 55.2249 92.9768C55.1743 92.983 55.1244 92.9938 55.0749 93.0092C55.0301 93.024 54.8968 93.0777 54.6749 93.1702L54.6487 92.9566L54.9332 92.8237C55.7052 92.4631 56.2416 92.1967 56.5423 92.0245C56.6642 91.9536 56.7435 91.9159 56.7803 91.9114C56.7934 91.9424 56.8022 91.9763 56.8068 92.0131L57.4141 96.962C57.4784 97.4858 57.5807 97.8068 57.7211 97.9248C57.8662 98.0423 58.1638 98.092 58.614 98.0741L58.6377 98.2671L55.2879 98.6782L55.2642 98.4852Z" fill="#333333"/>
<path d="M63.982 90.4297L64.1184 90.9107L62.7555 91.2973L63.8335 95.1492C63.9295 95.4877 64.0311 95.7356 64.1382 95.8929C64.3323 96.1699 64.5852 96.2642 64.897 96.1758C65.0573 96.1303 65.1846 96.0533 65.279 95.9447C65.3778 95.8349 65.4795 95.6761 65.5842 95.4684L65.7996 95.5661L65.7094 95.8082C65.5663 96.1857 65.3838 96.4756 65.1621 96.678C64.9404 96.8805 64.7093 97.0158 64.4688 97.084C63.9432 97.233 63.5206 97.1003 63.2009 96.6857C63.0265 96.4608 62.8755 96.1235 62.7479 95.6737L61.5997 91.6251L60.8715 91.8316C60.8454 91.8245 60.8238 91.8162 60.8067 91.8067C60.794 91.7958 60.7844 91.7793 60.7781 91.757C60.7655 91.7125 60.7649 91.6765 60.7764 91.6492C60.7911 91.6162 60.8393 91.5399 60.9209 91.4206C61.1562 91.0795 61.3186 90.8121 61.408 90.6183C61.5006 90.4188 61.7026 89.9092 62.0138 89.0895C62.0717 89.0731 62.1064 89.068 62.1178 89.0744C62.1337 89.0795 62.1499 89.1111 62.1663 89.169L62.6324 90.8125L63.982 90.4297Z" fill="#333333"/>
<path d="M76.5202 86.9399C76.1791 87.3849 75.925 87.7932 75.7578 88.1646C75.4386 88.8803 75.4262 89.4544 75.7206 89.8869C75.9576 90.2351 76.247 90.4134 76.5886 90.4216C76.8108 90.4272 77.0138 90.3674 77.1975 90.2424C77.4501 90.0705 77.643 89.8355 77.7762 89.5376C77.9132 89.2371 77.9075 88.9778 77.759 88.7596L76.5202 86.9399ZM74.9684 90.9786C74.5906 90.4237 74.5529 89.7717 74.8551 89.0227C75.0508 88.5534 75.5408 87.7635 76.3249 86.6529L75.9927 86.1649C75.727 85.7746 75.5037 85.5289 75.323 85.4279C75.0183 85.2601 74.6612 85.3156 74.2517 85.5943C74.0566 85.7272 73.9048 85.9033 73.7965 86.1226C73.6908 86.3458 73.6992 86.5473 73.8216 86.7272C73.8529 86.7731 73.9159 86.8451 74.0106 86.943C74.1026 87.0371 74.1591 87.0995 74.1799 87.1301C74.3258 87.3444 74.3566 87.5419 74.2724 87.7225C74.2259 87.8269 74.1471 87.9169 74.0361 87.9925C73.8639 88.1097 73.6941 88.1441 73.5267 88.0957C73.3567 88.0434 73.2248 87.9484 73.131 87.8106C72.9487 87.5427 72.923 87.1513 73.0542 86.6364C73.1865 86.1151 73.5722 85.6369 74.2113 85.2018C74.9538 84.6964 75.6212 84.5949 76.2135 84.8973C76.5348 85.065 76.8675 85.4014 77.2113 85.9066L78.7784 88.2085C78.9295 88.4305 79.049 88.5732 79.1369 88.6365C79.2883 88.7519 79.4424 88.7562 79.5993 88.6494C79.6873 88.5894 79.7509 88.5265 79.7901 88.4607C79.8293 88.3948 79.8845 88.262 79.9557 88.0623L80.1589 88.3608C80.1381 88.5934 80.0894 88.8058 80.0129 88.9978C79.8976 89.2891 79.729 89.5104 79.507 89.6615C79.2468 89.8386 79 89.8834 78.7668 89.7958C78.5373 89.7055 78.3374 89.5476 78.167 89.322C78.0481 89.7725 77.927 90.1294 77.8037 90.3925C77.5962 90.8363 77.3355 91.165 77.0216 91.3786C76.6925 91.6026 76.3293 91.6819 75.9318 91.6164C75.5318 91.5471 75.2107 91.3345 74.9684 90.9786Z" fill="#333333"/>
<path d="M83.4319 86.4513C83.6445 86.1576 83.7571 85.9365 83.7698 85.7879C83.79 85.5601 83.6482 85.314 83.3444 85.0496L80.6359 82.693C80.3774 82.4681 80.1776 82.3556 80.0365 82.3556C79.8985 82.3521 79.761 82.4289 79.6243 82.586C79.5605 82.6594 79.5154 82.7183 79.4889 82.7628C79.4655 82.8038 79.4413 82.8563 79.4162 82.9204L79.2328 82.7609L79.4353 82.2743C79.5084 82.0986 79.6208 81.8036 79.7725 81.3895C79.9242 80.9753 80.0077 80.7595 80.0229 80.742C80.0381 80.7246 80.0559 80.7217 80.0764 80.7334C80.0969 80.7451 80.1316 80.7722 80.1805 80.8148L80.8878 81.4301C80.8743 80.8109 80.9176 80.3238 81.0176 79.9691C81.1142 79.6112 81.2779 79.2996 81.5089 79.0342C81.8219 78.6744 82.1933 78.4944 82.6232 78.4941C82.8531 78.4978 83.1135 78.5617 83.4044 78.6859C83.3673 78.1995 83.3695 77.8056 83.4109 77.5041C83.483 76.9839 83.6695 76.5509 83.9704 76.2052C84.4596 75.6429 85.0151 75.4664 85.6367 75.6759C85.9893 75.7925 86.4451 76.0939 87.0039 76.5802L89.178 78.4719C89.426 78.6876 89.6425 78.7809 89.8275 78.7516C90.0121 78.7158 90.2429 78.5669 90.52 78.3048L90.6563 78.4233L88.6005 80.7861L88.4538 80.6584C88.6902 80.3303 88.8023 80.078 88.7901 79.9016C88.7809 79.7218 88.6313 79.5058 88.3414 79.2535L86.0835 77.2889C85.7447 76.9942 85.463 76.8135 85.2386 76.7471C84.8397 76.6271 84.4762 76.7558 84.148 77.133C83.9505 77.36 83.8296 77.6506 83.7853 78.0048C83.7602 78.21 83.7616 78.4905 83.7896 78.8462L86.4719 81.18C86.7548 81.4262 87.0121 81.5642 87.2439 81.594C87.4787 81.6204 87.7412 81.4774 88.0312 81.1652L88.1674 81.2837L86.0752 83.6884L85.939 83.5699C86.1857 83.2016 86.2893 82.9204 86.2495 82.7263C86.2098 82.5322 85.9577 82.233 85.4931 81.8289L84.0263 80.5525C83.4884 80.0845 83.0878 79.7974 82.8244 79.691C82.3819 79.5084 81.998 79.604 81.6729 79.9777C81.4875 80.1907 81.3645 80.4519 81.304 80.7613C81.24 81.0677 81.2339 81.3815 81.2857 81.7027L84.1514 84.1961C84.4168 84.4271 84.6397 84.5412 84.82 84.5385C85.0033 84.5324 85.232 84.3754 85.5059 84.0676L85.6421 84.1861L83.5681 86.5698L83.4319 86.4513Z" fill="#333333"/>
<path d="M88.0195 69.4793C88.3087 68.894 88.7654 68.482 89.3896 68.243C90.0096 68.002 90.691 68.0651 91.434 68.4322L89.4804 72.3855C90.4638 72.8198 91.2729 72.9486 91.9077 72.7717C92.5425 72.5948 92.9932 72.2366 93.2598 71.697C93.4752 71.2612 93.5426 70.8375 93.462 70.4259C93.3814 70.0142 93.194 69.5782 92.8999 69.1179L93.0823 68.9369C93.5253 69.3676 93.8551 69.9282 94.0716 70.6187C94.2901 71.305 94.2322 71.9865 93.8979 72.663C93.5123 73.4433 92.9192 73.9016 92.1186 74.0378C91.32 74.1699 90.5368 74.0462 89.769 73.6668C88.9347 73.2545 88.3367 72.6517 87.9748 71.8584C87.6129 71.065 87.6278 70.272 88.0195 69.4793ZM88.2956 70.0649C88.0618 70.5381 88.0929 71.0027 88.3891 71.4589C88.5475 71.7025 88.7826 71.9374 89.0942 72.1637L90.3925 69.5365C89.9549 69.377 89.6067 69.3031 89.348 69.3147C88.8822 69.3375 88.5314 69.5876 88.2956 70.0649Z" fill="#333333"/>
<path d="M91.2087 61.1557L91.6894 61.2934L91.2992 62.6553L95.1406 63.7703C95.4789 63.8672 95.7431 63.9116 95.9332 63.9035C96.2709 63.8846 96.4844 63.7194 96.5736 63.4079C96.6195 63.2477 96.6212 63.0989 96.5787 62.9615C96.5375 62.8196 96.4562 62.6495 96.3349 62.451L96.5315 62.3195L96.6897 62.5237C96.9349 62.8444 97.0851 63.1523 97.1402 63.4474C97.1953 63.7425 97.1885 64.0102 97.1196 64.2506C96.9691 64.7757 96.6335 65.0648 96.1126 65.1179C95.8296 65.1476 95.4634 65.098 95.0139 64.9692L90.9683 63.8102L90.7599 64.5379C90.7401 64.5563 90.7217 64.5703 90.7045 64.5798C90.6886 64.5849 90.6695 64.5842 90.6473 64.5778C90.6028 64.5651 90.5719 64.5466 90.5548 64.5225C90.5345 64.4925 90.4951 64.4114 90.4367 64.2791C90.271 63.8994 90.1294 63.6204 90.0119 63.4423C89.8912 63.2584 89.5646 62.8181 89.0322 62.1214C89.0488 62.0635 89.0628 62.0314 89.0743 62.0251C89.087 62.0143 89.1223 62.0172 89.1801 62.0337L90.8224 62.5042L91.2087 61.1557Z" fill="#333333"/>
<path d="M98.4459 55.8249C98.9094 55.8861 99.3188 56.1106 99.6739 56.4983C100.029 56.8861 100.268 57.2842 100.392 57.6928L100.099 57.7872C99.9094 57.3139 99.6809 56.9756 99.4136 56.7722C99.1468 56.5642 98.9171 56.4475 98.7243 56.422C98.66 56.4136 98.616 56.4288 98.5922 56.4676C98.5684 56.5065 98.5535 56.5489 98.5474 56.5948L98.5347 57.0625C98.5093 57.2552 98.424 57.4238 98.2789 57.568C98.1292 57.7117 97.935 57.7678 97.6963 57.7363C97.5127 57.7121 97.3425 57.6219 97.1856 57.4658C97.0288 57.3097 96.9704 57.0802 97.0103 56.7772C97.0485 56.4881 97.1975 56.2439 97.4572 56.0447C97.7124 55.8449 98.042 55.7716 98.4459 55.8249Z" fill="#333333"/>
<path d="M91.4873 43.5753C91.3816 43.0064 91.4386 42.4896 91.6583 42.025C91.8727 41.5566 92.1551 41.2899 92.5056 41.2248C92.6558 41.1969 92.8066 41.223 92.9581 41.3032C93.105 41.3842 93.1987 41.5339 93.2393 41.7524C93.2689 41.9117 93.2405 42.063 93.1541 42.2062C93.0668 42.3448 92.9236 42.4609 92.7244 42.5544L92.4119 42.6972C92.1816 42.8012 92.03 42.9353 91.9569 43.0996C91.8892 43.2676 91.8782 43.4745 91.9239 43.7202C92.0203 44.2391 92.3295 44.6361 92.8514 44.9111C93.368 45.1824 94.0018 45.2483 94.7529 45.1088C95.4402 44.9811 96.0205 44.6707 96.494 44.1778C96.9666 43.6803 97.1408 43.097 97.0165 42.428C96.9285 41.9546 96.6955 41.5623 96.3175 41.2511C96.1011 41.0747 95.7749 40.8905 95.339 40.6984L95.4195 40.4856C96.0139 40.6436 96.4971 40.8363 96.869 41.0639C97.5812 41.5013 98.0046 42.0819 98.1391 42.8056C98.271 43.5157 98.1078 44.1958 97.6494 44.846C97.191 45.4963 96.4816 45.9106 95.5212 46.089C94.579 46.2641 93.7134 46.1165 92.9245 45.6462C92.1355 45.176 91.6564 44.4857 91.4873 43.5753Z" fill="#333333"/>
<path d="M93.3622 37.2061C92.5121 37.5613 91.6821 37.5921 90.872 37.2984C90.0558 37.0022 89.4701 36.429 89.1149 35.579C88.7615 34.7332 88.7465 33.9166 89.0698 33.1293C89.393 32.3419 90.016 31.7555 90.9387 31.3699C91.7888 31.0148 92.6402 30.9751 93.493 31.2509C94.3459 31.5268 94.9508 32.0919 95.3077 32.9462C95.6504 33.7664 95.6393 34.5864 95.2744 35.4062C94.9095 36.226 94.2721 36.826 93.3622 37.2061ZM89.5743 35.5977C89.7153 35.9352 89.9487 36.1814 90.2743 36.3363C90.8415 36.6011 91.6014 36.5345 92.554 36.1364C93.3144 35.8187 93.9521 35.3516 94.4671 34.735C94.9804 34.1141 95.1094 33.4982 94.8542 32.8874C94.6543 32.409 94.2808 32.1335 93.7337 32.0611C93.1848 31.9843 92.5537 32.095 91.8404 32.3931C91.1014 32.7018 90.4738 33.1572 89.9577 33.7592C89.4415 34.3612 89.3137 34.9741 89.5743 35.5977Z" fill="#333333"/>
<path d="M91.8359 26.7605C91.6124 26.5159 91.4141 26.3753 91.241 26.3388C91.0615 26.3011 90.7977 26.405 90.4496 26.6505L87.5725 28.6799C87.3304 28.8506 87.1762 28.9934 87.1098 29.1082C87.0168 29.2815 87.0489 29.4797 87.2064 29.7029C87.2304 29.737 87.2576 29.7716 87.2881 29.8067C87.3159 29.8381 87.3523 29.8776 87.3972 29.9252L87.1986 30.0653C87.0438 29.9422 86.6677 29.658 86.0702 29.2126L85.5181 28.8032C85.4994 28.7768 85.4982 28.755 85.5144 28.7378C85.528 28.7169 85.5518 28.6945 85.5859 28.6704L86.4201 28.0821C85.8492 27.9635 85.4339 27.8485 85.1741 27.7372C84.7805 27.5729 84.4717 27.3318 84.2476 27.014C84.0661 26.7568 83.9745 26.4702 83.9726 26.1542C83.9719 25.5428 84.3404 24.977 85.0782 24.4567L87.7283 22.5874C88.0007 22.3953 88.1587 22.2017 88.2024 22.0066C88.2461 21.8115 88.1791 21.584 88.0014 21.3241L88.1603 21.212L89.8694 23.6351L89.7105 23.7472C89.4779 23.4977 89.2661 23.3581 89.0753 23.3285C88.8806 23.3015 88.5903 23.4241 88.2044 23.6962L85.7813 25.4054C85.4559 25.6348 85.23 25.8848 85.1036 26.1553C84.9733 26.4285 85.0229 26.7277 85.2524 27.0531C85.4098 27.2763 85.6456 27.4499 85.9597 27.574C86.1374 27.6412 86.3986 27.7063 86.7432 27.7691L89.9211 25.5277C90.1935 25.3356 90.3343 25.1456 90.3435 24.9578C90.3489 24.7727 90.2633 24.547 90.0868 24.2806L90.2456 24.1686L91.9948 26.6484L91.8359 26.7605Z" fill="#333333"/>
<path d="M83.8222 19.7235L83.6546 19.5672C83.9368 19.1087 84.1083 18.7146 84.169 18.3849C84.2858 17.7848 84.1157 17.2715 83.6588 16.8451C83.4049 16.6082 83.1405 16.4912 82.8654 16.4941C82.5839 16.4973 82.3388 16.6106 82.1304 16.834C81.9977 16.9762 81.9121 17.1527 81.8735 17.3637C81.835 17.5747 81.8639 17.8423 81.9602 18.1665L82.2257 19.0221C82.4335 19.634 82.5298 20.1449 82.5145 20.5549C82.4992 20.9648 82.3478 21.3238 82.0604 21.6318C81.7066 22.0109 81.2806 22.196 80.7824 22.187C80.2842 22.178 79.8304 21.9824 79.4208 21.6002C79.2414 21.4328 79.0767 21.2158 78.9266 20.9491C78.7732 20.6793 78.6829 20.5317 78.6558 20.5064C78.5949 20.4496 78.543 20.417 78.5001 20.4086C78.4573 20.4003 78.4083 20.4053 78.3533 20.4236L78.2314 20.3098L79.5177 18.8602L79.6751 19.007C79.4364 19.3985 79.2893 19.7394 79.2339 20.0295C79.1279 20.5638 79.2729 21.0158 79.6689 21.3853C79.9058 21.6064 80.1599 21.7074 80.4311 21.6882C80.7023 21.669 80.9295 21.5612 81.1127 21.3649C81.4033 21.0535 81.4287 20.558 81.1891 19.8784L80.8553 18.8926C80.5007 17.8271 80.5666 17.0338 81.0531 16.5126C81.4258 16.1132 81.8812 15.9271 82.4193 15.9544C82.9541 15.9785 83.4635 16.2163 83.9475 16.668C84.1506 16.8575 84.3491 17.1062 84.5432 17.4139C84.7373 17.7217 84.858 17.8976 84.9054 17.9419C84.946 17.9798 84.9958 17.9977 85.0546 17.9957C85.1104 17.997 85.1657 17.9853 85.2205 17.9604L85.3525 18.0836L83.8222 19.7235Z" fill="#333333"/>
<path d="M27.6022 10.3635C27.2644 10.6256 27.0672 10.8409 27.0108 11.0096C26.9568 11.1822 27.0303 11.424 27.2311 11.7352L28.9292 14.3668C29.1777 14.7519 29.3917 15.0023 29.571 15.118C29.749 15.2401 29.9332 15.2396 30.1238 15.1166C30.1627 15.0915 30.2115 15.0518 30.2701 14.9975C30.3273 14.9495 30.3859 14.8952 30.4459 14.8344L30.5701 15.027C30.3986 15.2479 30.2225 15.4744 30.0418 15.7067C29.8611 15.939 29.7374 16.1016 29.6705 16.1943C29.5237 16.3937 29.3773 16.6066 29.2314 16.833C29.2042 16.8506 29.1823 16.8509 29.1659 16.834C29.1456 16.8196 29.1153 16.7812 29.0751 16.719L28.4576 15.7621C28.4321 16.2689 28.3673 16.6936 28.2633 17.0362C28.1554 17.3813 27.977 17.6342 27.728 17.7949C27.5297 17.9229 27.3293 17.9668 27.127 17.9265C26.9272 17.8901 26.7696 17.7825 26.6541 17.6035C26.5512 17.4441 26.5132 17.2785 26.5402 17.1068C26.5633 16.9376 26.6468 16.8066 26.7907 16.7137C26.9385 16.6184 27.1322 16.5898 27.3718 16.628C27.6075 16.6688 27.7681 16.6616 27.8537 16.6063C27.9898 16.5185 28.0855 16.2997 28.1409 15.9499C28.1987 15.6041 28.1523 15.3145 28.0017 15.0811L26.3035 12.4495C26.0877 12.1149 25.8592 11.9318 25.6183 11.8999C25.3799 11.8719 25.0823 11.9786 24.7255 12.2198L24.6013 12.0272L27.4779 10.171L27.6022 10.3635Z" fill="#333333"/>
<path d="M52.3038 38.6742C45.7854 38.6742 40.4521 44.0075 40.4521 50.5259C40.4521 57.0443 45.7854 62.3776 52.3038 62.3776C58.8223 62.3776 64.1555 57.0443 64.1555 50.5259C64.1555 44.0075 58.8223 38.6742 52.3038 38.6742ZM57.2816 55.5036L51.1187 51.7111V44.6H52.8964V50.7629L58.2297 53.9629L57.2816 55.5036Z" fill="black"/>
</svg>
