<svg width="362" height="347" viewBox="0 0 362 347" fill="none" xmlns="http://www.w3.org/2000/svg">
<path d="M301.923 33.2599C303.287 33.7775 304.637 34.3924 305.957 35.1033C316.513 40.784 322.915 51.358 325 62.9609C327.086 74.5637 325.127 87.5044 318.917 99.5052C312.703 111.507 303.335 120.455 292.763 125.245C282.19 130.038 270.012 130.62 259.456 124.939C248.9 119.258 242.497 108.684 240.412 97.0812C238.326 85.4783 240.285 72.5376 246.496 60.5369C252.709 48.5353 262.079 39.582 272.652 34.7895C281.903 30.5974 292.376 29.6294 301.924 33.2597L301.923 33.2599ZM204.877 -4.70792C214.361 -0.892375 221.771 7.0796 226.302 16.6643C231.48 27.6191 233.229 40.9172 230.721 54.3656C228.214 67.8174 221.891 79.0482 213.286 86.4689C204.683 93.8901 193.405 97.5495 181.912 94.6013C170.419 91.6557 161.469 82.8157 156.29 71.8614C151.112 60.9065 149.365 47.6019 151.874 34.1529C154.381 20.7012 160.703 9.4703 169.309 2.04959C177.912 -5.37152 189.19 -9.03094 200.683 -6.08281C202.121 -5.71492 203.523 -5.25297 204.877 -4.70754L204.877 -4.70792ZM368.945 132.71C374.325 135.03 379.112 138.472 382.809 143.102C390.2 152.359 391.458 164.117 388.178 174.98C384.898 185.84 377.193 196.185 365.905 203.962C354.614 211.738 341.727 215.58 329.582 215.342C317.437 215.103 305.688 210.57 298.296 201.314C290.904 192.056 289.647 180.299 292.927 169.436C296.206 158.576 303.909 148.237 315.197 140.46C326.488 132.684 339.383 128.845 351.527 129.083C357.598 129.203 363.564 130.392 368.944 132.712L368.945 132.71ZM93.602 24.9867C99.1126 26.9245 104.393 30.1313 109.103 34.2316C118.521 42.4292 126.038 54.2622 129.962 67.9879C133.885 81.716 133.519 94.9224 129.46 105.481C125.402 116.037 117.337 124.149 106.099 126.118C94.8616 128.088 83.1433 123.438 73.7252 115.24C64.3071 107.042 56.7952 95.2195 52.872 81.4914C48.9488 67.7633 49.3077 54.5539 53.3667 43.9959C57.4246 33.4401 65.4974 25.3304 76.7349 23.3608C82.3551 22.3766 88.0922 23.0468 93.6022 24.9843L93.602 24.9867ZM220.077 111.531C279.957 134.958 309.675 206.116 287.848 269.828C282.391 285.756 276.327 294.678 267.035 297.151C262.391 298.388 257.443 297.575 252.951 295.733C248.459 293.891 244.194 291.085 239.799 287.754C222.221 274.437 201.818 252.251 175.4 241.915C148.985 231.581 119.987 234.44 98.5205 232.481C93.1542 231.993 88.1993 231.193 83.6562 229.499C79.1131 227.806 74.8464 225.014 72.0448 220.864C66.4441 212.564 67.2041 201.568 72.661 185.64C94.4893 121.926 160.184 88.0992 220.07 111.529L220.077 111.531Z" fill="white" fill-opacity="0.15"/>
</svg>
