<svg width="170" height="199" viewBox="0 0 170 199" fill="none" xmlns="http://www.w3.org/2000/svg">
<path d="M12.0906 74.7935L24.1927 78.8922L24.17 80.5841C24.1672 80.7921 24.0293 80.9342 23.7562 81.0106L15.4769 83.5877C15.292 83.6492 15.1074 83.6987 14.9228 83.7363C14.7303 83.7737 14.5418 83.8112 14.3573 83.8487C14.5407 83.8912 14.7282 83.9337 14.9196 83.9763C15.1031 84.0187 15.2904 84.0732 15.4815 84.1398L23.676 86.986C23.947 87.0617 24.0809 87.2235 24.0775 87.4715L24.056 89.0793L11.8482 92.8518L11.8708 91.172C11.873 91.004 11.9189 90.8646 12.0084 90.7538C12.098 90.635 12.2031 90.5564 12.3236 90.518L20.1781 88.2952C20.7559 88.1669 21.3013 88.0663 21.8143 87.9931C21.5513 87.9176 21.2843 87.842 21.0133 87.7664C20.7424 87.6827 20.4676 87.595 20.1888 87.5033L12.3519 84.8299C12.2325 84.7883 12.1334 84.7189 12.0547 84.6219C11.9761 84.5168 11.9378 84.3923 11.9397 84.2483L11.9523 83.3124C11.9544 83.1524 11.9962 83.0209 12.0776 82.918C12.159 82.8151 12.2599 82.7444 12.3804 82.7061L20.2854 80.3039C20.5665 80.2197 20.8436 80.1434 21.1165 80.0751C21.3895 80.0067 21.6584 79.9423 21.9232 79.8819C21.6598 79.8383 21.3964 79.7868 21.1332 79.7272C20.8621 79.6596 20.583 79.5879 20.296 79.512L12.5046 77.0312C12.3771 76.9895 12.2742 76.9121 12.1957 76.7991C12.1092 76.6859 12.067 76.5533 12.069 76.4013L12.0906 74.7935Z" fill="white"/>
<path d="M21.726 58.9079C21.2585 58.7423 20.8084 58.6592 20.3757 58.6587C19.9382 58.648 19.5345 58.7214 19.1646 58.8789C18.7899 59.0263 18.4631 59.2542 18.184 59.5627C17.8974 59.8686 17.6727 60.2515 17.5097 60.7115C17.1678 61.6767 17.1794 62.5423 17.5446 63.3082C17.9049 64.0639 18.5587 64.6859 19.506 65.1743L21.726 58.9079ZM27.6758 59.1825C27.8893 59.5382 28.0477 59.9296 28.1511 60.3566C28.2468 60.7809 28.2956 61.2183 28.2973 61.6687C28.3016 62.1116 28.263 62.5562 28.1812 63.0025C28.107 63.4515 27.9965 63.8834 27.8495 64.2981C27.569 65.0899 27.1779 65.7746 26.6763 66.3523C26.1697 66.9197 25.5732 67.3576 24.8868 67.6661C24.1955 67.9644 23.421 68.1144 22.5632 68.116C21.7054 68.1177 20.7826 67.9435 19.7947 67.5936C18.9954 67.3104 18.2916 66.9253 17.6834 66.4382C17.0778 65.9436 16.6038 65.3768 16.2616 64.7378C15.9117 64.0962 15.7111 63.3928 15.6596 62.6277C15.6006 61.8599 15.7181 61.0613 16.0119 60.2318C16.255 59.5456 16.5963 58.9536 17.0358 58.4557C17.4704 57.9477 17.9811 57.56 18.5681 57.2927C19.1502 57.0151 19.8045 56.8692 20.5309 56.855C21.2498 56.8381 22.0165 56.9739 22.8309 57.2624C23.1476 57.3746 23.3467 57.4833 23.4283 57.5886C23.5098 57.6939 23.5172 57.8408 23.4504 58.0293L20.7375 65.687C21.4695 65.9208 22.1338 66.0458 22.7307 66.0621C23.3302 66.0708 23.867 65.9809 24.3412 65.7924C24.8078 65.6012 25.2091 65.319 25.545 64.9458C25.8734 64.5698 26.1337 64.1104 26.3261 63.5675C26.5051 63.0622 26.6021 62.6086 26.6172 62.2066C26.6275 61.7943 26.6115 61.4322 26.5693 61.1202C26.527 60.8082 26.4801 60.5454 26.4284 60.3319C26.3719 60.1082 26.3663 59.9322 26.4117 59.804C26.4705 59.6381 26.58 59.5327 26.7403 59.4876L27.6758 59.1825Z" fill="white"/>
<path d="M19.1323 42.0167L34.049 51.4999L32.9031 53.3025L17.9863 43.8192L19.1323 42.0167Z" fill="white"/>
<path d="M33.7325 32.5919C34.3695 31.9732 35.0464 31.5219 35.7634 31.2381C36.4803 30.9543 37.2091 30.8319 37.9496 30.871C38.6902 30.91 39.4255 31.1158 40.1556 31.4885C40.8858 31.8498 41.5826 32.3719 42.2459 33.0548C42.9148 33.7434 43.4193 34.4579 43.7593 35.1983C44.1051 35.9331 44.2867 36.6712 44.3043 37.4126C44.3218 38.1539 44.1784 38.8789 43.8739 39.5873C43.5639 40.29 43.0904 40.9507 42.4534 41.5694C41.8108 42.1937 41.1309 42.6534 40.4137 42.9486C39.6968 43.2323 38.968 43.3547 38.2275 43.3157C37.4869 43.2767 36.7515 43.0765 36.0213 42.7151C35.2968 42.3482 34.6001 41.8205 33.9312 41.1319C33.2678 40.449 32.7633 39.7402 32.4175 39.0054C32.0719 38.2592 31.8904 37.5155 31.8728 36.7741C31.8553 36.0327 31.9987 35.3078 32.3032 34.5994C32.6134 33.8854 33.0898 33.2162 33.7325 32.5919ZM41.2912 40.373C42.1519 39.5369 42.5159 38.6256 42.3831 37.6393C42.2448 36.6472 41.6739 35.6348 40.6705 34.6019C39.6616 33.5633 38.6633 32.9604 37.6757 32.7933C36.688 32.6263 35.7638 32.9608 34.9031 33.7969C34.467 34.2206 34.1579 34.6659 33.9757 35.1328C33.7993 35.5942 33.7386 36.0713 33.7937 36.5643C33.8546 37.0517 34.0311 37.555 34.3234 38.0741C34.6159 38.5818 35.013 39.0939 35.5147 39.6104C36.5181 40.6432 37.5136 41.2432 38.5012 41.4103C39.489 41.566 40.419 41.2203 41.2912 40.373Z" fill="white"/>
<path d="M55.8614 17.7588L57.1152 30.8262L55.4147 31.7176L45.3817 23.2518L46.9228 22.444C47.0787 22.3623 47.2267 22.3344 47.3667 22.3604C47.5068 22.3863 47.6224 22.4431 47.7135 22.5309L54.0773 28.0289C54.2998 28.2465 54.5079 28.4625 54.7016 28.6771C54.8954 28.8917 55.0856 29.1081 55.2723 29.3264C55.199 29.0487 55.1292 28.7691 55.063 28.4877C54.9968 28.2063 54.941 27.9103 54.8957 27.5999L54.0268 19.2217C54.0099 19.086 54.0325 18.9568 54.0945 18.8339C54.1529 18.704 54.2494 18.6037 54.384 18.5332L55.8614 17.7588Z" fill="white"/>
<path d="M74.2339 17.5269C74.1342 17.0411 73.9727 16.6128 73.7496 16.242C73.5328 15.8619 73.2614 15.5542 72.9354 15.3189C72.6157 15.0742 72.2516 14.9121 71.8433 14.8326C71.4334 14.7452 70.9894 14.7506 70.5113 14.8487C69.5083 15.0546 68.7732 15.5118 68.3061 16.2202C67.8452 16.9191 67.6504 17.8003 67.7217 18.8637L74.2339 17.5269ZM77.0728 22.763C76.8785 23.1296 76.6252 23.4674 76.313 23.7765C75.9992 24.0778 75.6499 24.3455 75.2651 24.5796C74.8882 24.8122 74.4875 25.0087 74.0631 25.1694C73.6404 25.3378 73.2135 25.4663 72.7825 25.5547C71.9596 25.7236 71.1713 25.7425 70.4176 25.6114C69.67 25.4709 68.9869 25.1864 68.3681 24.7581C67.7556 24.3203 67.227 23.7346 66.7824 23.0011C66.3378 22.2675 66.0102 21.3874 65.7995 20.3608C65.6289 19.5301 65.5951 18.7285 65.6978 17.9561C65.8085 17.1821 66.0489 16.4834 66.4192 15.8603C66.7878 15.2292 67.2864 14.6941 67.9149 14.2547C68.5417 13.8075 69.2862 13.4955 70.1482 13.3185C70.8614 13.1721 71.5446 13.1585 72.1979 13.2775C72.8574 13.3872 73.4532 13.6242 73.9853 13.9886C74.5237 14.3436 74.9867 14.8284 75.3742 15.4431C75.7601 16.0499 76.0399 16.7764 76.2136 17.6228C76.2812 17.9519 76.291 18.1786 76.2429 18.3028C76.1949 18.427 76.073 18.5092 75.8771 18.5494L67.919 20.183C68.0969 20.9305 68.3331 21.5639 68.6276 22.0833C68.9299 22.6011 69.2842 23.0143 69.6905 23.3229C70.0953 23.6236 70.5442 23.8214 71.0374 23.9162C71.5289 24.0031 72.0568 23.9887 72.621 23.8729C73.146 23.7651 73.5846 23.6138 73.9366 23.419C74.2949 23.2148 74.5967 23.0141 74.842 22.8167C75.0873 22.6193 75.288 22.4434 75.4441 22.2888C75.6065 22.1248 75.7543 22.0292 75.8875 22.0018C76.0599 21.9664 76.2068 22.0057 76.3282 22.1196L77.0728 22.763Z" fill="white"/>
<path d="M91.5248 19.0623C90.5409 19.0253 89.6974 19.0463 88.9941 19.1253C88.2994 19.1968 87.7256 19.3169 87.2727 19.4856C86.8277 19.6549 86.496 19.8682 86.2774 20.1255C86.0669 20.3834 85.9498 20.6799 85.9263 21.0151C85.9039 21.3343 85.9364 21.6133 86.0239 21.852C86.1114 22.0907 86.2376 22.292 86.4025 22.456C86.576 22.6125 86.7799 22.7351 87.0143 22.8237C87.2572 22.9049 87.5183 22.9553 87.7976 22.9749C88.1727 23.0013 88.5184 22.9894 88.8347 22.9395C89.1515 22.8815 89.4506 22.7902 89.732 22.6656C90.0214 22.5416 90.2968 22.3885 90.5582 22.2064C90.8276 22.0248 91.091 21.8147 91.3483 21.5761L91.5248 19.0623ZM84.9896 13.6233C85.7053 13.024 86.4614 12.5919 87.2579 12.327C88.0544 12.0621 88.9235 11.9627 89.8652 12.0288C90.5435 12.0765 91.1382 12.2305 91.6492 12.4909C92.1602 12.7513 92.5813 13.0937 92.9124 13.5179C93.2435 13.9421 93.481 14.444 93.6247 15.0235C93.7685 15.6029 93.8166 16.2319 93.769 16.9102L93.2245 24.6671L92.2788 24.6007C92.0713 24.5862 91.9139 24.543 91.8067 24.4713C91.7 24.3917 91.6217 24.2498 91.5719 24.0459L91.4132 22.8799C91.0732 23.1527 90.7435 23.3942 90.424 23.6044C90.1051 23.8066 89.7724 23.9757 89.426 24.1118C89.0802 24.2399 88.713 24.3304 88.3243 24.3833C87.9431 24.4447 87.521 24.4592 87.0582 24.4267C86.5873 24.3937 86.1489 24.2987 85.7429 24.1419C85.3374 23.9771 84.9883 23.7521 84.6956 23.4669C84.4108 23.1823 84.1906 22.834 84.0351 22.4221C83.8881 22.0028 83.8339 21.5178 83.8726 20.9672C83.9062 20.4883 84.0701 20.0387 84.3643 19.6183C84.659 19.1899 85.1137 18.8248 85.7283 18.5231C86.3429 18.2214 87.1326 17.9961 88.0974 17.8473C89.0628 17.6906 90.2369 17.6447 91.6197 17.7097L91.6861 16.764C91.7522 15.8223 91.5986 15.0978 91.2252 14.5904C90.8523 14.075 90.2749 13.7899 89.4928 13.735C88.9661 13.698 88.5184 13.7347 88.1498 13.8452C87.7897 13.9482 87.4721 14.0743 87.197 14.2234C86.9304 14.3651 86.6966 14.497 86.4955 14.6192C86.303 14.734 86.115 14.785 85.9314 14.7721C85.7878 14.762 85.6666 14.7174 85.5679 14.6383C85.4698 14.5513 85.3887 14.4493 85.3247 14.3326L84.9896 13.6233Z" fill="white"/>
<path d="M105.878 16.9993C106.227 16.8119 106.582 16.6563 106.943 16.5325C107.303 16.4087 107.666 16.3242 108.032 16.279C108.408 16.229 108.784 16.2259 109.16 16.2696C109.546 16.3085 109.942 16.4021 110.347 16.5504C110.971 16.7783 111.481 17.084 111.878 17.4674C112.284 17.846 112.575 18.2846 112.751 18.7832C112.937 19.2769 113.015 19.8208 112.985 20.4147C112.955 21.0086 112.823 21.6286 112.586 22.2748L109.929 29.5445L107.912 28.8071L110.569 21.5375C110.885 20.6734 110.93 19.9319 110.705 19.3129C110.49 18.6892 109.98 18.2305 109.176 17.9366C108.583 17.7197 107.975 17.6592 107.352 17.7552C106.736 17.854 106.122 18.068 105.507 18.3971L102.434 26.8051L100.417 26.0677L104.59 14.6504L105.796 15.0912C106.081 15.1955 106.207 15.3991 106.173 15.7018L105.878 16.9993Z" fill="white"/>
<path d="M125.488 24.6242L118.785 34.7654L117.003 33.5876L123.706 23.4464L125.488 24.6242ZM127.972 21.6921C127.858 21.8656 127.713 22.0049 127.538 22.1098C127.374 22.2126 127.192 22.2843 126.993 22.325C126.804 22.3635 126.608 22.3632 126.404 22.324C126.206 22.2893 126.021 22.2146 125.847 22.0999C125.674 21.9852 125.532 21.8438 125.423 21.6756C125.32 21.5118 125.249 21.3357 125.211 21.1473C125.177 20.9521 125.175 20.7591 125.205 20.5682C125.24 20.3706 125.315 20.185 125.429 20.0115C125.544 19.8379 125.686 19.6965 125.854 19.5871C126.026 19.471 126.207 19.3938 126.395 19.3553C126.588 19.3101 126.78 19.3027 126.971 19.333C127.169 19.3677 127.354 19.4424 127.528 19.5571C127.701 19.6718 127.843 19.8133 127.952 19.9814C128.068 20.1541 128.143 20.3379 128.177 20.533C128.222 20.7259 128.225 20.9245 128.186 21.1288C128.158 21.3308 128.087 21.5186 127.972 21.6921Z" fill="white"/>
<path d="M125.266 39.1242L134.513 31.2333L135.346 32.21C135.544 32.4412 135.553 32.6803 135.375 32.9272L134.527 33.856C135.237 33.8384 135.908 33.9284 136.54 34.1259C137.171 34.3234 137.725 34.702 138.203 35.2619C138.733 35.8826 138.988 36.5326 138.968 37.212C138.954 37.8975 138.724 38.5773 138.279 39.2514C138.728 39.0997 139.162 39.0234 139.582 39.0226C140.008 39.0278 140.411 39.0938 140.793 39.2204C141.174 39.3471 141.526 39.5253 141.848 39.7551C142.176 39.9909 142.469 40.261 142.729 40.5653C143.144 41.0521 143.434 41.5517 143.598 42.064C143.773 42.5772 143.823 43.0919 143.748 43.608C143.678 44.1302 143.484 44.6483 143.165 45.1621C142.853 45.6708 142.417 46.164 141.857 46.6418L135.969 51.6661L134.575 50.0322L140.462 45.0079C141.186 44.3899 141.599 43.7643 141.7 43.1311C141.808 42.4927 141.607 41.8753 141.098 41.2789C140.869 41.0112 140.603 40.7971 140.297 40.6368C140.004 40.4774 139.688 40.3843 139.349 40.3575C139.011 40.3307 138.655 40.382 138.282 40.5114C137.919 40.6416 137.556 40.8625 137.191 41.1741L131.303 46.1984L129.909 44.5645L135.796 39.5402C136.539 38.9066 136.965 38.285 137.076 37.6752C137.187 37.0654 136.998 36.4745 136.51 35.9025C136.167 35.5009 135.741 35.2231 135.231 35.0693C134.727 34.9103 134.167 34.8462 133.552 34.8769L126.66 40.7581L125.266 39.1242Z" fill="white"/>
<path d="M146.764 62.4039C146.37 61.5017 145.985 60.7511 145.608 60.152C145.242 59.5574 144.884 59.0927 144.536 58.7581C144.19 58.4309 143.854 58.2248 143.527 58.1397C143.203 58.0621 142.885 58.0855 142.573 58.21C142.276 58.3285 142.039 58.479 141.862 58.6616C141.685 58.8441 141.558 59.0452 141.482 59.265C141.417 59.4893 141.395 59.7262 141.417 59.9758C141.449 60.2299 141.517 60.4869 141.621 60.747C141.76 61.0963 141.921 61.4025 142.104 61.6656C142.293 61.9258 142.506 62.1556 142.74 62.3549C142.978 62.5616 143.235 62.7432 143.513 62.8995C143.793 63.0632 144.097 63.2091 144.424 63.3372L146.764 62.4039ZM148.824 54.1546C149.674 54.5388 150.392 55.0321 150.977 55.6344C151.561 56.2367 152.029 56.9763 152.378 57.8531C152.63 58.4848 152.75 59.0873 152.737 59.6607C152.725 60.2341 152.599 60.7621 152.361 61.2447C152.123 61.7272 151.774 62.1591 151.315 62.5404C150.855 62.9217 150.31 63.2382 149.678 63.4901L142.455 66.3701L142.104 65.4895C142.027 65.2963 141.997 65.1358 142.015 65.0081C142.041 64.8774 142.134 64.7452 142.296 64.6117L143.278 63.9621C142.884 63.7745 142.523 63.5825 142.195 63.386C141.875 63.1866 141.578 62.9605 141.305 62.7076C141.039 62.4518 140.798 62.1604 140.581 61.8333C140.36 61.5166 140.164 61.1428 139.992 60.7118C139.817 60.2734 139.712 59.8372 139.677 59.4034C139.649 58.9666 139.7 58.5544 139.83 58.1668C139.963 57.7867 140.181 57.4371 140.484 57.118C140.798 56.8034 141.211 56.5439 141.724 56.3395C142.17 56.1617 142.646 56.1139 143.152 56.1962C143.666 56.2755 144.193 56.5264 144.732 56.9489C145.27 57.3714 145.816 57.9848 146.37 58.7891C146.93 59.5904 147.482 60.628 148.024 61.9017L148.905 61.5506C149.781 61.201 150.367 60.7478 150.662 60.191C150.964 59.6313 150.97 58.9873 150.68 58.259C150.484 57.7686 150.257 57.3813 149.997 57.0973C149.748 56.8178 149.496 56.5865 149.242 56.4035C148.999 56.2249 148.778 56.0717 148.581 55.9437C148.394 55.8202 148.266 55.673 148.198 55.5021C148.145 55.3683 148.132 55.2398 148.161 55.1165C148.197 54.9903 148.253 54.873 148.33 54.7646L148.824 54.1546Z" fill="white"/>
<path d="M161.945 73.05L144.499 75.89L144.156 73.7817L161.602 70.9417L161.945 73.05Z" fill="white"/>
<path d="M155.049 91.4443C154.877 91.3399 154.797 91.1877 154.807 90.988C154.812 90.8681 154.863 90.7344 154.958 90.5869C155.054 90.4394 155.159 90.2563 155.274 90.0376C155.396 89.8274 155.509 89.5726 155.611 89.2732C155.722 88.9743 155.788 88.6171 155.808 88.2016C155.825 87.842 155.793 87.516 155.712 87.2237C155.638 86.9317 155.526 86.678 155.376 86.4624C155.226 86.2548 155.046 86.0898 154.836 85.9674C154.633 85.8534 154.408 85.7903 154.16 85.7782C153.849 85.7629 153.585 85.8381 153.368 86.0038C153.152 86.1774 152.96 86.4083 152.794 86.6965C152.628 86.9847 152.475 87.3137 152.337 87.6834C152.207 88.0535 152.064 88.4309 151.909 88.8158C151.762 89.2091 151.599 89.5896 151.421 89.9573C151.243 90.3251 151.027 90.6509 150.772 90.9348C150.518 91.2187 150.211 91.44 149.851 91.5986C149.498 91.7656 149.078 91.8371 148.591 91.8133C148.031 91.7859 147.517 91.6606 147.047 91.4374C146.586 91.2146 146.189 90.8988 145.856 90.4901C145.532 90.0818 145.284 89.589 145.112 89.0119C144.94 88.4349 144.872 87.7748 144.908 87.0316C144.949 86.1847 145.123 85.4242 145.428 84.7503C145.741 84.0768 146.126 83.5109 146.58 83.0526L147.371 83.5959C147.472 83.6649 147.548 83.7447 147.599 83.8353C147.651 83.9259 147.674 84.0392 147.667 84.175C147.66 84.3188 147.597 84.4679 147.477 84.6223C147.357 84.7766 147.224 84.9623 147.077 85.1794C146.93 85.4045 146.792 85.6781 146.665 86.0002C146.537 86.3224 146.461 86.7271 146.437 87.2146C146.417 87.6301 146.451 87.9962 146.539 88.3129C146.636 88.63 146.771 88.8969 146.945 89.1136C147.118 89.3304 147.323 89.4925 147.558 89.6002C147.792 89.7158 148.046 89.7802 148.317 89.7935C148.653 89.8099 148.933 89.7315 149.158 89.5583C149.39 89.3934 149.589 89.1669 149.756 88.8787C149.93 88.5908 150.082 88.2579 150.213 87.8798C150.351 87.5101 150.494 87.1287 150.641 86.7354C150.788 86.3501 150.951 85.9696 151.13 85.5939C151.316 85.2265 151.54 84.9011 151.802 84.6176C152.064 84.334 152.38 84.1092 152.748 83.943C153.124 83.7852 153.572 83.719 154.092 83.7444C154.555 83.7671 154.994 83.8846 155.408 84.0971C155.83 84.31 156.192 84.608 156.494 84.9912C156.803 85.3748 157.041 85.839 157.206 86.3837C157.372 86.9285 157.438 87.5444 157.404 88.2316C157.365 89.0306 157.202 89.7395 156.916 90.3583C156.637 90.9854 156.266 91.5199 155.804 91.9619L155.049 91.4443Z" fill="white"/>
<path d="M157.218 123.553L145.116 119.454L145.139 117.763C145.141 117.555 145.279 117.412 145.552 117.336L153.832 114.759C154.017 114.697 154.201 114.648 154.386 114.61C154.578 114.573 154.767 114.536 154.951 114.498C154.768 114.456 154.58 114.413 154.389 114.37C154.206 114.328 154.018 114.273 153.827 114.207L145.633 111.361C145.362 111.285 145.228 111.123 145.231 110.875L145.253 109.267L157.46 105.495L157.438 107.175C157.436 107.343 157.39 107.482 157.3 107.593C157.211 107.712 157.106 107.79 156.985 107.829L149.13 110.051C148.553 110.18 148.007 110.28 147.494 110.354C147.757 110.429 148.024 110.505 148.295 110.58C148.566 110.664 148.841 110.752 149.12 110.843L156.957 113.517C157.076 113.558 157.175 113.628 157.254 113.725C157.332 113.83 157.371 113.954 157.369 114.098L157.356 115.034C157.354 115.194 157.312 115.326 157.231 115.429C157.15 115.532 157.049 115.602 156.928 115.641L149.023 118.043C148.742 118.127 148.465 118.203 148.192 118.272C147.919 118.34 147.65 118.404 147.385 118.465C147.649 118.508 147.912 118.56 148.175 118.619C148.447 118.687 148.726 118.759 149.013 118.835L156.804 121.315C156.931 121.357 157.034 121.435 157.113 121.548C157.199 121.661 157.242 121.793 157.24 121.945L157.218 123.553Z" fill="white"/>
<path d="M147.583 139.439C148.05 139.604 148.5 139.687 148.933 139.688C149.37 139.699 149.774 139.625 150.144 139.468C150.519 139.32 150.846 139.092 151.125 138.784C151.411 138.478 151.636 138.095 151.799 137.635C152.141 136.67 152.129 135.804 151.764 135.038C151.404 134.283 150.75 133.661 149.803 133.172L147.583 139.439ZM141.633 139.164C141.419 138.808 141.261 138.417 141.158 137.99C141.062 137.566 141.013 137.128 141.011 136.678C141.007 136.235 141.046 135.79 141.127 135.344C141.202 134.895 141.312 134.463 141.459 134.049C141.74 133.257 142.131 132.572 142.632 131.994C143.139 131.427 143.735 130.989 144.422 130.681C145.113 130.382 145.888 130.232 146.745 130.231C147.603 130.229 148.526 130.403 149.514 130.753C150.313 131.036 151.017 131.421 151.625 131.908C152.231 132.403 152.705 132.97 153.047 133.609C153.397 134.251 153.597 134.954 153.649 135.719C153.708 136.487 153.591 137.285 153.297 138.115C153.054 138.801 152.712 139.393 152.273 139.891C151.838 140.399 151.327 140.787 150.74 141.054C150.158 141.332 149.504 141.477 148.778 141.492C148.059 141.509 147.292 141.373 146.478 141.084C146.161 140.972 145.962 140.863 145.88 140.758C145.799 140.653 145.791 140.506 145.858 140.317L148.571 132.66C147.839 132.426 147.175 132.301 146.578 132.285C145.978 132.276 145.442 132.366 144.967 132.554C144.501 132.745 144.1 133.028 143.764 133.401C143.435 133.777 143.175 134.236 142.983 134.779C142.804 135.284 142.706 135.738 142.691 136.14C142.681 136.552 142.697 136.914 142.739 137.226C142.782 137.538 142.829 137.801 142.88 138.015C142.937 138.238 142.942 138.414 142.897 138.543C142.838 138.709 142.729 138.814 142.568 138.859L141.633 139.164Z" fill="white"/>
<path d="M150.176 156.33L135.26 146.847L136.406 145.044L151.322 154.527L150.176 156.33Z" fill="white"/>
<path d="M135.576 165.755C134.939 166.374 134.262 166.825 133.545 167.109C132.828 167.392 132.1 167.515 131.359 167.476C130.618 167.437 129.883 167.231 129.153 166.858C128.423 166.497 127.726 165.975 127.063 165.292C126.394 164.603 125.889 163.889 125.549 163.148C125.203 162.414 125.022 161.675 125.004 160.934C124.987 160.193 125.13 159.468 125.435 158.759C125.745 158.057 126.218 157.396 126.855 156.777C127.498 156.153 128.178 155.693 128.895 155.398C129.612 155.114 130.341 154.992 131.081 155.031C131.822 155.07 132.557 155.27 133.287 155.632C134.012 155.998 134.709 156.526 135.377 157.215C136.041 157.898 136.545 158.606 136.891 159.341C137.237 160.087 137.418 160.831 137.436 161.573C137.453 162.314 137.31 163.039 137.005 163.747C136.695 164.461 136.219 165.13 135.576 165.755ZM128.017 157.974C127.157 158.81 126.793 159.721 126.925 160.707C127.064 161.699 127.635 162.712 128.638 163.745C129.647 164.783 130.645 165.386 131.633 165.553C132.621 165.72 133.545 165.386 134.405 164.55C134.842 164.126 135.151 163.681 135.333 163.214C135.509 162.753 135.57 162.275 135.515 161.782C135.454 161.295 135.277 160.792 134.985 160.273C134.693 159.765 134.296 159.253 133.794 158.736C132.791 157.703 131.795 157.103 130.807 156.936C129.82 156.781 128.89 157.126 128.017 157.974Z" fill="white"/>
<path d="M113.447 180.588L112.193 167.52L113.894 166.629L123.927 175.095L122.386 175.903C122.23 175.984 122.082 176.012 121.942 175.986C121.802 175.96 121.686 175.904 121.595 175.816L115.231 170.318C115.009 170.1 114.801 169.884 114.607 169.67C114.413 169.455 114.223 169.239 114.036 169.02C114.11 169.298 114.179 169.578 114.246 169.859C114.312 170.14 114.368 170.436 114.413 170.747L115.282 179.125C115.299 179.261 115.276 179.39 115.214 179.513C115.156 179.643 115.059 179.743 114.925 179.814L113.447 180.588Z" fill="white"/>
<path d="M95.0747 180.82C95.1744 181.306 95.3358 181.734 95.5589 182.105C95.7758 182.485 96.0472 182.792 96.3732 183.028C96.6929 183.272 97.057 183.435 97.4653 183.514C97.8752 183.601 98.3192 183.596 98.7973 183.498C99.8003 183.292 100.535 182.835 101.003 182.126C101.463 181.428 101.658 180.546 101.587 179.483L95.0747 180.82ZM92.2358 175.584C92.4301 175.217 92.6833 174.879 92.9956 174.57C93.3094 174.269 93.6587 174.001 94.0435 173.767C94.4204 173.535 94.8211 173.338 95.2455 173.177C95.6682 173.009 96.0951 172.88 96.5261 172.792C97.349 172.623 98.1373 172.604 98.891 172.735C99.6386 172.876 100.322 173.16 100.94 173.589C101.553 174.026 102.082 174.612 102.526 175.346C102.971 176.079 103.298 176.959 103.509 177.986C103.68 178.817 103.714 179.618 103.611 180.391C103.5 181.165 103.26 181.863 102.889 182.486C102.521 183.117 102.022 183.653 101.394 184.092C100.767 184.539 100.022 184.851 99.1604 185.028C98.4472 185.175 97.764 185.188 97.1107 185.069C96.4512 184.96 95.8554 184.722 95.3232 184.358C94.7849 184.003 94.3219 183.518 93.9344 182.904C93.5485 182.297 93.2687 181.57 93.095 180.724C93.0274 180.395 93.0176 180.168 93.0656 180.044C93.1137 179.92 93.2356 179.837 93.4315 179.797L101.39 178.164C101.212 177.416 100.975 176.783 100.681 176.263C100.379 175.746 100.024 175.332 99.6181 175.024C99.2133 174.723 98.7644 174.525 98.2712 174.431C97.7797 174.344 97.2518 174.358 96.6876 174.474C96.1626 174.582 95.724 174.733 95.372 174.928C95.0137 175.132 94.7119 175.333 94.4666 175.53C94.2213 175.727 94.0206 175.903 93.8645 176.058C93.7021 176.222 93.5543 176.318 93.4211 176.345C93.2487 176.38 93.1018 176.341 92.9804 176.227L92.2358 175.584Z" fill="white"/>
<path d="M77.7838 179.284C78.7677 179.321 79.6112 179.3 80.3145 179.221C81.0092 179.15 81.583 179.03 82.0359 178.861C82.4809 178.692 82.8126 178.479 83.0312 178.221C83.2417 177.963 83.3588 177.667 83.3823 177.332C83.4047 177.012 83.3722 176.733 83.2847 176.495C83.1972 176.256 83.071 176.055 82.906 175.891C82.7326 175.734 82.5287 175.612 82.2943 175.523C82.0514 175.442 81.7903 175.391 81.511 175.372C81.1359 175.345 80.7902 175.357 80.4739 175.407C80.1571 175.465 79.858 175.556 79.5766 175.681C79.2872 175.805 79.0118 175.958 78.7504 176.14C78.481 176.322 78.2176 176.532 77.9603 176.771L77.7838 179.284ZM84.319 184.723C83.6033 185.323 82.8472 185.755 82.0507 186.02C81.2542 186.285 80.3851 186.384 79.4434 186.318C78.7651 186.27 78.1704 186.116 77.6594 185.856C77.1483 185.595 76.7273 185.253 76.3962 184.829C76.0651 184.405 75.8276 183.903 75.6839 183.323C75.5401 182.744 75.492 182.115 75.5396 181.436L76.0841 173.68L77.0298 173.746C77.2373 173.761 77.3947 173.804 77.5019 173.875C77.6086 173.955 77.6869 174.097 77.7367 174.301L77.8954 175.467C78.2354 175.194 78.5651 174.952 78.8846 174.742C79.2035 174.54 79.5362 174.371 79.8826 174.235C80.2284 174.107 80.5956 174.016 80.9843 173.963C81.3655 173.902 81.7876 173.887 82.2504 173.92C82.7213 173.953 83.1597 174.048 83.5657 174.205C83.9712 174.37 84.3203 174.595 84.613 174.88C84.8978 175.164 85.1179 175.513 85.2735 175.925C85.4205 176.344 85.4747 176.829 85.436 177.38C85.4024 177.858 85.2385 178.308 84.9443 178.728C84.6496 179.157 84.1949 179.522 83.5803 179.824C82.9657 180.125 82.176 180.351 81.2112 180.499C80.2458 180.656 79.0717 180.702 77.6889 180.637L77.6225 181.583C77.5564 182.524 77.71 183.249 78.0834 183.756C78.4562 184.272 79.0337 184.557 79.8158 184.612C80.3425 184.649 80.7902 184.612 81.1588 184.501C81.5189 184.398 81.8365 184.272 82.1116 184.123C82.3782 183.982 82.612 183.85 82.8131 183.727C83.0056 183.613 83.1936 183.562 83.3771 183.575C83.5208 183.585 83.642 183.629 83.7407 183.708C83.8388 183.795 83.9199 183.897 83.9839 184.014L84.319 184.723Z" fill="white"/>
<path d="M63.4309 181.347C63.0813 181.535 62.7264 181.69 62.366 181.814C62.0056 181.938 61.6425 182.022 61.2767 182.068C60.9007 182.118 60.5248 182.121 60.149 182.077C59.7629 182.038 59.3669 181.945 58.9612 181.796C58.3375 181.568 57.8275 181.263 57.431 180.879C57.0243 180.501 56.7331 180.062 56.5576 179.564C56.3718 179.07 56.2938 178.526 56.3235 177.932C56.3531 177.338 56.4861 176.718 56.7222 176.072L59.3792 168.802L61.3967 169.54L58.7397 176.809C58.4239 177.673 58.3786 178.415 58.6038 179.034C58.8188 179.657 59.3282 180.116 60.1322 180.41C60.7258 180.627 61.334 180.687 61.9568 180.591C62.5721 180.493 63.1869 180.279 63.8013 179.95L66.8743 171.542L68.8918 172.279L64.7188 183.696L63.5129 183.255C63.2273 183.151 63.1016 182.948 63.1356 182.645L63.4309 181.347Z" fill="white"/>
<path d="M43.8209 173.723L50.5234 163.581L52.3054 164.759L45.6028 174.9L43.8209 173.723ZM41.3364 176.655C41.4511 176.481 41.5959 176.342 41.7707 176.237C41.9345 176.134 42.1162 176.062 42.3157 176.022C42.5041 175.983 42.7005 175.984 42.9048 176.023C43.1024 176.057 43.288 176.132 43.4615 176.247C43.635 176.361 43.7765 176.503 43.8859 176.671C43.9886 176.835 44.0592 177.011 44.0977 177.199C44.1317 177.395 44.1336 177.588 44.1033 177.778C44.0686 177.976 43.9939 178.162 43.8792 178.335C43.7645 178.509 43.6231 178.65 43.4549 178.76C43.2823 178.876 43.1018 178.953 42.9133 178.991C42.7204 179.037 42.5286 179.044 42.3376 179.014C42.14 178.979 41.9544 178.904 41.7809 178.79C41.6074 178.675 41.4659 178.533 41.3565 178.365C41.2405 178.193 41.1654 178.009 41.1313 177.814C41.0862 177.621 41.0832 177.422 41.1223 177.218C41.1503 177.016 41.2217 176.828 41.3364 176.655Z" fill="white"/>
<path d="M44.0425 159.222L34.7958 167.113L33.9623 166.137C33.765 165.905 33.7555 165.666 33.9339 165.419L34.782 164.491C34.0713 164.508 33.4003 164.418 32.769 164.221C32.1377 164.023 31.5832 163.645 31.1054 163.085C30.5757 162.464 30.3208 161.814 30.3404 161.135C30.355 160.449 30.5846 159.769 31.0295 159.095C30.5806 159.247 30.1461 159.323 29.7261 159.324C29.301 159.319 28.8976 159.253 28.5161 159.126C28.1346 159 27.7827 158.821 27.4604 158.592C27.1329 158.356 26.8393 158.086 26.5796 157.781C26.1642 157.295 25.8746 156.795 25.7108 156.283C25.5358 155.769 25.4857 155.255 25.5606 154.739C25.6303 154.216 25.8245 153.698 26.1432 153.185C26.4558 152.676 26.8921 152.183 27.4519 151.705L33.3395 146.681L34.7338 148.314L28.8463 153.339C28.1221 153.957 27.7094 154.582 27.6083 155.216C27.501 155.854 27.7019 156.471 28.2108 157.068C28.4393 157.336 28.7061 157.55 29.0112 157.71C29.305 157.869 29.6211 157.962 29.9594 157.989C30.2978 158.016 30.6536 157.965 31.0271 157.835C31.3892 157.705 31.7528 157.484 32.1179 157.173L38.0055 152.148L39.3999 153.782L33.5123 158.807C32.7699 159.44 32.3433 160.062 32.2327 160.671C32.122 161.281 32.3107 161.872 32.7989 162.444C33.1416 162.846 33.568 163.124 34.0779 163.277C34.5817 163.436 35.1412 163.501 35.7565 163.47L42.6481 157.589L44.0425 159.222Z" fill="white"/>
<path d="M22.5442 135.943C22.9383 136.845 23.3237 137.596 23.7004 138.195C24.0667 138.789 24.4242 139.254 24.7729 139.589C25.1187 139.916 25.455 140.122 25.7817 140.207C26.1055 140.285 26.4234 140.261 26.7355 140.137C27.0327 140.018 27.2699 139.868 27.4468 139.685C27.6238 139.503 27.7503 139.301 27.8263 139.082C27.8919 138.857 27.9137 138.62 27.8917 138.371C27.8593 138.117 27.7913 137.86 27.6876 137.6C27.5483 137.25 27.3875 136.944 27.205 136.681C27.0152 136.421 26.803 136.191 26.5685 135.992C26.331 135.785 26.0735 135.604 25.7959 135.447C25.5153 135.283 25.2116 135.138 24.885 135.009L22.5442 135.943ZM20.485 144.192C19.6342 143.808 18.9164 143.315 18.3318 142.712C17.7472 142.11 17.28 141.37 16.9304 140.494C16.6785 139.862 16.5589 139.259 16.5714 138.686C16.5839 138.113 16.7093 137.585 16.9475 137.102C17.1857 136.619 17.5346 136.188 17.994 135.806C18.4535 135.425 18.999 135.108 19.6307 134.857L26.8537 131.977L27.2048 132.857C27.2818 133.05 27.3114 133.211 27.2934 133.339C27.268 133.469 27.1743 133.601 27.0122 133.735L26.031 134.385C26.4245 134.572 26.7853 134.764 27.1134 134.961C27.434 135.16 27.7309 135.386 28.0039 135.639C28.2696 135.895 28.5107 136.186 28.7272 136.513C28.9482 136.83 29.1446 137.204 29.3165 137.635C29.4913 138.073 29.5963 138.509 29.6314 138.943C29.6592 139.38 29.6082 139.792 29.4786 140.18C29.3459 140.56 29.1279 140.91 28.8245 141.229C28.5107 141.543 28.0974 141.803 27.5847 142.007C27.1388 142.185 26.6626 142.233 26.1561 142.15C25.6422 142.071 25.1159 141.82 24.5771 141.398C24.0383 140.975 23.4923 140.362 22.939 139.558C22.3784 138.756 21.8269 137.719 21.2846 136.445L20.404 136.796C19.5271 137.146 18.9413 137.599 18.6466 138.156C18.3444 138.715 18.3385 139.359 18.6288 140.088C18.8244 140.578 19.052 140.965 19.3117 141.249C19.5609 141.529 19.8125 141.76 20.0663 141.943C20.3097 142.122 20.5302 142.275 20.7276 142.403C20.9147 142.526 21.0423 142.674 21.1104 142.845C21.1637 142.978 21.1762 143.107 21.1479 143.23C21.1121 143.356 21.0555 143.474 20.9781 143.582L20.485 144.192Z" fill="white"/>
<path d="M7.36327 125.297L24.8096 122.457L25.1528 124.565L7.70646 127.405L7.36327 125.297Z" fill="white"/>
<path d="M14.26 106.902C14.4311 107.007 14.5118 107.159 14.502 107.359C14.4962 107.479 14.4456 107.612 14.3502 107.76C14.2549 107.907 14.1499 108.09 14.035 108.309C13.9126 108.519 13.8 108.774 13.6973 109.073C13.5865 109.372 13.521 109.73 13.5007 110.145C13.4831 110.505 13.5152 110.831 13.597 111.123C13.6709 111.415 13.7826 111.669 13.9322 111.884C14.0823 112.092 14.2624 112.257 14.4727 112.379C14.6754 112.493 14.9006 112.556 15.1483 112.569C15.4599 112.584 15.7239 112.509 15.9402 112.343C16.157 112.169 16.3485 111.938 16.5148 111.65C16.681 111.362 16.8333 111.033 16.9715 110.663C17.1018 110.293 17.2444 109.916 17.3994 109.531C17.5467 109.138 17.7095 108.757 17.8877 108.389C18.0659 108.022 18.2821 107.696 18.5362 107.412C18.7904 107.128 19.0976 106.907 19.4578 106.748C19.8104 106.581 20.2304 106.51 20.7178 106.533C21.2771 106.561 21.7916 106.686 22.2612 106.909C22.7229 107.132 23.12 107.448 23.4524 107.857C23.7768 108.265 24.025 108.758 24.1971 109.335C24.3691 109.912 24.4369 110.572 24.4006 111.315C24.3591 112.162 24.1858 112.922 23.8805 113.596C23.5672 114.27 23.1831 114.836 22.7282 115.294L21.9378 114.751C21.837 114.682 21.7608 114.602 21.7092 114.511C21.6575 114.421 21.635 114.308 21.6417 114.172C21.6487 114.028 21.7121 113.879 21.8318 113.724C21.9515 113.57 22.0847 113.384 22.2315 113.167C22.3786 112.942 22.5162 112.669 22.6441 112.346C22.772 112.024 22.8478 111.62 22.8717 111.132C22.892 110.717 22.8578 110.351 22.7692 110.034C22.6726 109.717 22.5375 109.45 22.3638 109.233C22.1902 109.016 21.9859 108.854 21.7509 108.747C21.5162 108.631 21.2631 108.566 20.9914 108.553C20.6558 108.537 20.3757 108.615 20.1509 108.788C19.9186 108.953 19.7193 109.18 19.553 109.468C19.3787 109.756 19.2263 110.089 19.0957 110.467C18.9574 110.837 18.8146 111.218 18.6672 111.611C18.5202 111.997 18.3574 112.377 18.1789 112.753C17.9927 113.12 17.7685 113.446 17.5064 113.729C17.2442 114.013 16.9288 114.237 16.5603 114.404C16.1841 114.561 15.7364 114.628 15.217 114.602C14.7535 114.58 14.3148 114.462 13.9006 114.25C13.4785 114.037 13.1167 113.739 12.815 113.355C12.5054 112.972 12.2678 112.508 12.1022 111.963C11.9366 111.418 11.8706 110.802 11.9043 110.115C11.9433 109.316 12.1062 108.607 12.3927 107.988C12.6717 107.361 13.0423 106.827 13.5044 106.385L14.26 106.902Z" fill="white"/>
<g clip-path="url(#clip0_829_1318)">
<path d="M84.9993 111.467L83.066 109.707C76.1993 103.48 71.666 99.3733 71.666 94.3333C71.666 90.2267 74.8927 87 78.9993 87C81.3193 87 83.546 88.08 84.9993 89.7867C86.4527 88.08 88.6793 87 90.9993 87C95.106 87 98.3327 90.2267 98.3327 94.3333C98.3327 99.3733 93.7993 103.48 86.9327 109.72L84.9993 111.467Z" fill="white"/>
</g>
<defs>
<clipPath id="clip0_829_1318">
<rect width="32" height="32" fill="white" transform="translate(69 83)"/>
</clipPath>
</defs>
</svg>
